<svg xmlns="http://www.w3.org/2000/svg" width="16" height="16" viewBox="0 0 16 16" fill="none">
<path d="M4.26669 1.59995L2.40002 4.15995V13.12C2.40002 13.4594 2.53114 13.785 2.76451 14.025C2.99789 14.2651 3.31442 14.4 3.64447 14.4H12.3556C12.6856 14.4 13.0022 14.2651 13.2355 14.025C13.4689 13.785 13.6 13.4594 13.6 13.12V4.15995L11.7334 1.59995H4.26669Z" stroke="#aa8d58" style="stroke:#aa8d58;;stroke-opacity:1;" stroke-width="1.4" stroke-linecap="round" stroke-linejoin="round"/>
<path d="M10.4 7.19995C10.4 7.83647 10.1471 8.44692 9.69703 8.89701C9.24694 9.34709 8.6365 9.59995 7.99998 9.59995C7.36346 9.59995 6.75301 9.34709 6.30292 8.89701C5.85283 8.44692 5.59998 7.83647 5.59998 7.19995" stroke="#aa8d58" style="stroke:#aa8d58;;stroke-opacity:1;" stroke-width="1.4" stroke-linecap="square" stroke-linejoin="round"/>
<path d="M3.19995 3.29995H2.49995V4.69995H3.19995V3.29995ZM3.19995 4.69995L13.6 4.69995V3.29995L3.19995 3.29995V4.69995Z" fill="#aa8d58" style="fill:#aa8d58;fill-opacity:1;"/>
</svg>