<svg xmlns="http://www.w3.org/2000/svg" width="16" height="16" viewBox="0 0 16 16" fill="none">
<path d="M13 14V11C13 10.4477 12.5523 10 12 10H10.8508C10.6237 10 10.4034 10.0773 10.2261 10.2191L8.6247 11.5002C8.25948 11.7924 7.74052 11.7924 7.3753 11.5002L5.77391 10.2191C5.5966 10.0773 5.37629 10 5.14922 10H4C3.44772 10 3 10.4477 3 11V14" stroke="#aa8d58" style="stroke:#aa8d58;stroke-opacity:1;" stroke-width="1.4" stroke-linejoin="round"/>
<path d="M8 8C9.65685 8 11 6.65685 11 5C11 3.34315 9.65685 2 8 2C6.34315 2 5 3.34315 5 5C5 6.65685 6.34315 8 8 8Z" stroke="#aa8d58" style="stroke:#aa8d58;stroke-opacity:1;" stroke-width="1.4" stroke-linecap="round" stroke-linejoin="round"/>
</svg>